HIERARCHY
ROOT Hips
{
  OFFSET 55.0212 85.5135 16.9143
  CHANNELS 6 Xposition Yposition Zposition Zrotation Xrotation Yrotation
  JOINT spine
  {
    OFFSET 0 6.3926 0.367606
    CHANNELS 3 Zrotation Xrotation Yrotation
    JOINT spine1
    {
      OFFSET 0 9.17611 0
      CHANNELS 3 Zrotation Xrotation Yrotation
      JOINT spine2
      {
        OFFSET 0 8.79238 0
        CHANNELS 3 Zrotation Xrotation Yrotation
        JOINT Neck
        {
          OFFSET 0 22.5737 1.07624
          CHANNELS 3 Zrotation Xrotation Yrotation
          JOINT Head
          {
            OFFSET 0 6.82011 0
            CHANNELS 3 Zrotation Xrotation Yrotation
            End Site
            {
              OFFSET 0 16.5085 -5.44427
            }
          }
        }
        JOINT RightShoulder
        {
          OFFSET -3.70221 9.49509 -0.515508
          CHANNELS 3 Zrotation Xrotation Yrotation
          JOINT RightArm
          {
            OFFSET 0 12.4537 0
            CHANNELS 3 Zrotation Xrotation Yrotation
            JOINT RightArmRoll
            {
              OFFSET 0 6.28686 0
              CHANNELS 3 Zrotation Xrotation Yrotation
              JOINT RightForeArm
              {
                OFFSET 0 18.3114 0
                CHANNELS 3 Zrotation Xrotation Yrotation
                JOINT RightForeArmRoll
                {
                  OFFSET 0 7.05482 0
                  CHANNELS 3 Zrotation Xrotation Yrotation
                  JOINT RightHand
                  {
                    OFFSET 0 14.1575 0
                    CHANNELS 3 Zrotation Xrotation Yrotation
                    End Site
                    {
                      OFFSET 0 0 0
                    }
                  }
                }
              }
            }
          }
        }
        JOINT LeftShoulder
        {
          OFFSET 3.70221 9.49509 -0.515508
          CHANNELS 3 Zrotation Xrotation Yrotation
          JOINT LeftArm
          {
            OFFSET 0 12.4537 0
            CHANNELS 3 Zrotation Xrotation Yrotation
            JOINT LeftArmRoll
            {
              OFFSET 0 6.28686 0
              CHANNELS 3 Zrotation Xrotation Yrotation
              JOINT LeftForeArm
              {
                OFFSET 0 18.3114 0
                CHANNELS 3 Zrotation Xrotation Yrotation
                JOINT LeftForeArmRoll
                {
                  OFFSET 0 7.05482 0
                  CHANNELS 3 Zrotation Xrotation Yrotation
                  JOINT LeftHand
                  {
                    OFFSET 0 14.1575 0
                    CHANNELS 3 Zrotation Xrotation Yrotation
                    End Site
                    {
                      OFFSET 0 0 0
                    }
                  }
                }
              }
            }
          }
        }
      }
    }
  }
  JOINT RightUpLeg
  {
    OFFSET -5.66615 -1.03903 -0.87161
    CHANNELS 3 Zrotation Xrotation Yrotation
    JOINT RightUpLegRoll
    {
      OFFSET 0 16.6005 0
      CHANNELS 3 Zrotation Xrotation Yrotation
      JOINT RightLeg
      {
        OFFSET 0 -20.5572 0
        CHANNELS 3 Zrotation Xrotation Yrotation
        JOINT RightLegRoll
        {
          OFFSET 0 20.6244 0
          CHANNELS 3 Zrotation Xrotation Yrotation
          JOINT RightFoot
          {
            OFFSET 0 17.1664 0
            CHANNELS 3 Zrotation Xrotation Yrotation
            JOINT RightToeBase
            {
              OFFSET 0 14.3502 0
              CHANNELS 3 Zrotation Xrotation Yrotation
              End Site
              {
                OFFSET 0.00608252 6.94971 -0.801061
              }
            }
          }
        }
      }
    }
  }
  JOINT LeftUpLeg
  {
    OFFSET 5.66615 -1.03903 -0.87161
    CHANNELS 3 Zrotation Xrotation Yrotation
    JOINT LeftUpLegRoll
    {
      OFFSET 0 16.6006 0
      CHANNELS 3 Zrotation Xrotation Yrotation
      JOINT LeftLeg
      {
        OFFSET 0 20.5571 0
        CHANNELS 3 Zrotation Xrotation Yrotation
        JOINT LeftLegRoll
        {
          OFFSET 0 20.8151 0
          CHANNELS 3 Zrotation Xrotation Yrotation
          JOINT LeftFoot
          {
            OFFSET 0 16.9757 0
            CHANNELS 3 Zrotation Xrotation Yrotation
            JOINT LeftToeBase
            {
              OFFSET 0 14.3502 0
              CHANNELS 3 Zrotation Xrotation Yrotation
              End Site
              {
                OFFSET -0.0272592 6.94971 -0.801061
              }
            }
          }
        }
      }
    }
  }
}
MOTION
Frames: 10
Frame Time: 0.00208333
56.4452 84.8794 14.2286 2.97939 -0.381142 -12.3934 0.58642 -0.272961 0.76965 1.1708 3.46427 1.46552 1.15476 5.10893 1.44762 -47.6417 5.22839 2.73241 30.4167 16.3578 -12.0498 -22.093 2.68777 33.2722 36.1596 73.6961 79.7626 2.11714e-005 -1.56645e-007 1.87468e-006 -13.2722 7.38498 1.51691 -4.94636e-006 -4.4349e-006 -3.0117 8.02887 -4.95145 0.69769 -70.6288 -21.9561 12.3748 -102.891 25.9793 66.8664 -6.10669e-006 -4.04556e-006 1.30532e-005 157.884 53.7939 -118.861 2.24799e-006 -4.36375e-006 3.00134 -8.02893 -4.95145 -0.697686 171.861 3.66932 3.64864 180 7.01552e-015 178.947 176.467 20.293 179.937 -5.56276e-007 3.61928e-006 0.555918 -29.9544 76.6578 31.5545 8.17431 26.1932 -2.18289 -175.708 11.069 2.99048 4.54188e-006 -4.6773e-006 -0.826136 0.857647 -8.86552 0.799605 3.40932e-006 7.52221e-007 0.207401 14.3552 66.1637 -18.2446 -8.13095 25.2384 3.48234 
56.4518 84.882 14.2552 2.98865 -0.342997 -12.3088 0.584106 -0.278432 0.775078 1.16619 3.45336 1.47638 1.15001 5.09801 1.45896 -47.6273 5.24484 2.69247 30.4566 16.3749 -12.1015 -22.3783 2.43173 32.887 35.511 73.9009 80.0209 2.11714e-005 -1.56645e-007 1.87468e-006 -13.2884 6.62064 1.41024 -4.94636e-006 -4.4349e-006 -3.0117 8.02887 -4.95145 0.69769 -70.6442 -21.9319 12.3607 -102.887 26.0506 66.8738 -6.10669e-006 -4.04556e-006 1.30532e-005 157.898 53.7761 -118.869 2.24799e-006 -4.36375e-006 3.00133 -8.02893 -4.95145 -0.697686 171.874 3.67662 3.63906 180 7.01553e-015 178.948 176.464 20.2712 179.938 -5.56276e-007 3.61928e-006 0.55442 -29.9491 76.6558 31.5492 8.17451 26.1967 -2.17798 -175.723 11.1236 3.01224 4.54188e-006 -4.6773e-006 -0.825304 0.868592 -8.86291 0.800455 3.40932e-006 7.52221e-007 0.206351 14.3626 66.1723 -18.25 -8.13095 25.2384 3.48233 
56.456 84.8836 14.2512 2.99328 -0.301709 -12.2175 0.581558 -0.284638 0.780545 1.16112 3.44097 1.48728 1.1448 5.08562 1.47045 -47.6002 5.2696 2.65035 30.4962 16.382 -12.1527 -22.6401 2.18103 32.4711 34.9808 74.1215 80.2307 2.11714e-005 -1.56645e-007 1.87468e-006 -13.2814 5.99276 1.31911 -4.94636e-006 -4.4349e-006 -3.0117 8.02887 -4.95145 0.69769 -70.6543 -21.9023 12.3447 -102.883 26.122 66.882 -6.10669e-006 -4.04556e-006 1.30532e-005 157.912 53.7591 -118.876 2.24799e-006 -4.36375e-006 3.00132 -8.02893 -4.95145 -0.697686 171.895 3.68174 3.62366 180 7.01553e-015 178.948 176.462 20.2449 179.938 -5.56276e-007 3.61928e-006 0.552856 -29.9408 76.6526 31.5407 8.17475 26.2008 -2.17234 -175.732 11.1828 3.03074 4.54188e-006 -4.6773e-006 -0.824331 0.87988 -8.86136 0.801627 3.40932e-006 7.52221e-007 0.205298 14.3666 66.1803 -18.2551 -8.13095 25.2384 3.48232 
56.3883 84.8764 14.1995 2.99356 -0.257947 -12.1208 0.578744 -0.291539 0.786 1.15553 3.42719 1.49814 1.13907 5.07184 1.48197 -47.5608 5.30318 2.60686 30.5346 16.3796 -12.2026 -22.8779 1.93656 32.0302 34.5629 74.3559 80.3947 2.11714e-005 -1.56645e-007 1.87468e-006 -13.2535 5.49311 1.24279 -4.94636e-006 -4.4349e-006 -3.0117 8.02887 -4.95145 0.69769 -70.6594 -21.8669 12.3266 -102.88 26.1927 66.8893 -6.10669e-006 -4.04556e-006 1.30532e-005 157.925 53.7429 -118.885 2.24799e-006 -4.36375e-006 3.00131 -8.02893 -4.95145 -0.697686 171.925 3.68464 3.60296 180 7.01553e-015 178.949 176.462 20.2148 179.937 -5.56276e-007 3.61928e-006 0.551242 -29.9296 76.6481 31.5293 8.17502 26.2052 -2.16604 -175.735 11.2456 3.04594 4.54188e-006 -4.6773e-006 -0.823237 0.891238 -8.86075 0.803053 3.40932e-006 7.52221e-007 0.204247 14.3674 66.1877 -18.26 -8.13095 25.2384 3.48232 
56.4016 84.881 14.2164 2.98976 -0.21238 -12.0197 0.575634 -0.299093 0.791391 1.14936 3.41209 1.50888 1.13275 5.05675 1.49342 -47.5093 5.34606 2.56281 30.571 16.368 -12.2506 -23.0913 1.69935 31.57 34.2517 74.6017 80.5154 2.11714e-005 -1.56645e-007 1.87468e-006 -13.2073 5.11346 1.18066 -4.94636e-006 -4.4349e-006 -3.0117 8.02887 -4.95145 0.69769 -70.6594 -21.8253 12.3059 -102.878 26.2619 66.8941 -6.10669e-006 -4.04556e-006 1.30532e-005 157.938 53.7272 -118.895 2.24799e-006 -4.36375e-006 3.0013 -8.02893 -4.95145 -0.697686 171.963 3.68527 3.5775 180 7.01553e-015 178.95 176.464 20.1813 179.937 -5.56276e-007 3.61928e-006 0.549595 -29.9158 76.6426 31.5151 8.17531 26.2101 -2.15916 -175.733 11.311 3.05779 4.54188e-006 -4.6773e-006 -0.822043 0.902397 -8.86095 0.804667 3.40932e-006 7.52221e-007 0.203203 14.3655 66.1947 -18.2646 -8.13095 25.2384 3.48231 
56.3794 84.8781 14.1884 2.98217 -0.165682 -11.9153 0.572194 -0.307259 0.796667 1.14254 3.39577 1.5194 1.12578 5.04042 1.50471 -47.4458 5.39874 2.519 30.6043 16.3476 -12.2961 -23.2798 1.47051 31.0963 34.0415 74.8568 80.595 2.11714e-005 -1.56645e-007 1.87468e-006 -13.1459 4.84556 1.13217 -4.94636e-006 -4.4349e-006 -3.0117 8.02887 -4.95145 0.69769 -70.6544 -21.7773 12.2826 -102.875 26.3284 66.8946 -6.10669e-006 -4.04556e-006 1.30532e-005 157.952 53.7121 -118.907 2.24799e-006 -4.36375e-006 3.00129 -8.02893 -4.95145 -0.697686 172.007 3.68356 3.5478 180 7.01553e-015 178.95 176.467 20.1448 179.936 -5.56276e-007 3.61928e-006 0.547933 -29.8995 76.6361 31.4985 8.17564 26.2154 -2.15176 -175.725 11.3782 3.06623 4.54188e-006 -4.6773e-006 -0.820769 0.913083 -8.86183 0.8064 3.40932e-006 7.52221e-007 0.202172 14.3611 66.2011 -18.2691 -8.13095 25.2384 3.48231 
56.3711 84.8793 14.1904 2.97108 -0.118526 -11.8087 0.568393 -0.315996 0.801778 1.135 3.3783 1.52962 1.11811 5.02296 1.51573 -47.3707 5.46172 2.47623 30.6336 16.3188 -12.3383 -23.4425 1.25127 30.6148 33.9267 75.1188 80.6358 2.11714e-005 -1.56645e-007 1.87468e-006 -13.0724 4.68116 1.09679 -4.94636e-006 -4.4349e-006 -3.0117 8.02887 -4.95145 0.69769 -70.6444 -21.7226 12.2563 -102.873 26.3916 66.8893 -6.10669e-006 -4.04556e-006 1.30532e-005 157.968 53.6974 -118.923 2.24799e-006 -4.36375e-006 3.00128 -8.02893 -4.95145 -0.697686 172.057 3.67948 3.51439 180 7.01553e-015 178.951 176.472 20.1057 179.934 -5.56276e-007 3.61928e-006 0.546271 -29.881 76.6286 31.4796 8.17598 26.221 -2.14392 -175.713 11.4462 3.07122 4.54188e-006 -4.6773e-006 -0.819436 0.923027 -8.86326 0.808187 3.40932e-006 7.52221e-007 0.201158 14.3546 66.207 -18.2732 -8.13095 25.2384 3.4823 
56.3688 84.8782 14.1817 2.95679 -0.0715867 -11.701 0.564199 -0.32526 0.806672 1.12669 3.35977 1.53947 1.10966 5.00443 1.52638 -47.2841 5.5355 2.43531 30.6582 16.2819 -12.3768 -23.5784 1.04295 30.1312 33.9019 75.3855 80.64 2.11714e-005 -1.56645e-007 1.87468e-006 -12.9901 4.61201 1.07405 -4.94636e-006 -4.4349e-006 -3.0117 8.02887 -4.95145 0.69769 -70.6296 -21.6607 12.2267 -102.87 26.4504 66.8765 -6.10669e-006 -4.04556e-006 1.30532e-005 157.985 53.683 -118.944 2.24799e-006 -4.36375e-006 3.00127 -8.02893 -4.95145 -0.697686 172.112 3.67297 3.47781 180 7.01553e-015 178.951 176.478 20.0647 179.932 -5.56276e-007 3.61928e-006 0.544627 -29.8606 76.6203 31.4586 8.17634 26.2269 -2.13571 -175.696 11.514 3.07271 4.54188e-006 -4.6773e-006 -0.818066 0.931957 -8.86511 0.80996 3.40932e-006 7.52221e-007 0.200166 14.3465 66.2123 -18.2771 -8.13095 25.2384 3.48229 
56.3563 84.8798 14.1757 2.93961 -0.0255426 -11.5934 0.55958 -0.335013 0.811299 1.11754 3.34025 1.54884 1.10038 4.98491 1.53656 -47.1863 5.62055 2.39705 30.6771 16.2372 -12.4108 -23.6866 0.846941 29.6512 33.9613 75.6545 80.6099 2.11714e-005 -1.56645e-007 1.87468e-006 -12.9024 4.62984 1.06348 -4.94636e-006 -4.4349e-006 -3.0117 8.02887 -4.95145 0.69769 -70.6099 -21.5914 12.1937 -102.866 26.5039 66.8543 -6.10669e-006 -4.04556e-006 1.30532e-005 158.005 53.6688 -118.969 2.24799e-006 -4.36375e-006 3.00126 -8.02893 -4.95145 -0.697686 172.171 3.66397 3.43859 180 7.01553e-015 178.951 176.485 20.022 179.93 -5.56276e-007 3.61928e-006 0.543017 -29.8383 76.6112 31.4358 8.17672 26.2329 -2.12721 -175.674 11.5806 3.07065 4.54188e-006 -4.6773e-006 -0.816678 0.939602 -8.86726 0.811652 3.40932e-006 7.52221e-007 0.199201 14.337 66.2171 -18.2806 -8.13095 25.2384 3.48229 
56.3298 84.8833 14.2101 2.91987 0.0189274 -11.4868 0.554505 -0.34521 0.815608 1.10748 3.31984 1.55766 1.09019 4.9645 1.54617 -47.0776 5.7174 2.36226 30.6894 16.1853 -12.4398 -23.7659 0.6647 29.1805 34.0992 75.9234 80.548 2.11714e-005 -1.56645e-007 1.87468e-006 -12.8129 4.7264 1.06465 -4.94636e-006 -4.4349e-006 -3.0117 8.02887 -4.95145 0.69769 -70.5855 -21.5144 12.157 -102.861 26.5512 66.8212 -6.10669e-006 -4.04556e-006 1.30532e-005 158.027 53.6547 -119.002 2.24799e-006 -4.36375e-006 3.00124 -8.02893 -4.95145 -0.697686 172.234 3.65243 3.39725 180 7.01553e-015 178.951 176.494 19.9783 179.928 -5.56276e-007 3.61928e-006 0.541459 -29.8145 76.6015 31.4114 8.17711 26.2391 -2.11849 -175.649 11.6452 3.06498 4.54188e-006 -4.6773e-006 -0.815293 0.94569 -8.86958 0.813197 3.40932e-006 7.52221e-007 0.198269 14.3264 66.2213 -18.2838 -8.13095 25.2384 3.48228 
